<?xml version="1.0" ?><svg viewBox="0 0 60 60" xmlns="http://www.w3.org/2000/svg"><title/><g id="colour"><path d="M44.19686,31.91208a.666.666,0,0,0-.14135-.01011c-.35331-.04036-.69657-.07067-1.02973-.10093-.08072-.01011-.1615-.01011-.24228-.02021-.29274-.02021-.58548-.04036-.86818-.05046-.31295-.02021-.61579-.04036-.9086-.04036-.19181-.01011-.37352-.01011-.55523-.01011A19.71312,19.71312,0,0,0,30.1241,33.98159c-2.9579,1.42346-6.00668,2.88722-13.992,2.19071-.24228-.02021-.47451-.04042-.71678-.06063-.14135-.02015-.28263-.03025-.424-.05046a16.40713,16.40713,0,0,1,9.78229-9.63083.26157.26157,0,0,0,.1716-.24228V12.05476a.24991.24991,0,0,0-.25238-.25238,2.77621,2.77621,0,0,1,0-5.55238H36.80714a2.77621,2.77621,0,0,1,0,5.55238.24991.24991,0,0,0-.25238.25238V26.1881a.26157.26157,0,0,0,.1716.24228A16.24463,16.24463,0,0,1,44.19686,31.91208Z" fill="#e0e0e0"/><path d="M37.00673,26.43036a.26112.26112,0,0,1-.16519-.24225V12.05475a.24534.24534,0,0,1,.24291-.25238,2.60613,2.60613,0,0,0,1.885-.81769,2.81339,2.81339,0,0,0,.787-1.9585A2.724,2.724,0,0,0,37.08445,6.25L35,6c.92728.43524,0,.87311,0,2,0,.73694.50526-.525,0,0s-.29072,0-1,0c-.13605,0-1-.14136-1,0V25.93811a.26116.26116,0,0,0,.16513.24225A15.68683,15.68683,0,0,1,40.35529,31.662a.61959.61959,0,0,0-.13605-.01007c-.34-.04041,2.82567.348.37285.02789-.17352-.02265.34977,0,.53434.01013.28186,0,.57329.02014.87453.04034.272.01013.55384.03027.83558.05048.07772.01013.1555.01013.23316.0202.32069.03027.65107.06055.99114.101a.61906.61906,0,0,1,.136.01007A15.687,15.687,0,0,0,37.00673,26.43036Z" fill="#c9c8c7"/><path d="M47.65952,42.34048a16.90952,16.90952,0,1,1-33.819,0,17.35222,17.35222,0,0,1,.96917-5.78461c.24228.03032.48455.05053.71672.07067.19181.02021.37352.04042.55523.05053q.36351.03022.69657.06057c1.55471.111,2.90743.14129,4.11887.111.636-.02021,1.22155-.06057,1.76667-.111a18.63074,18.63074,0,0,0,3.68479-.68653c.35331-.10093.69657-.212,1.01963-.323a31.54306,31.54306,0,0,0,2.968-1.29222c.75714-.36341,1.50418-.72683,2.32189-1.03978q.48458-.19686.99942-.36348h.01011a22.72852,22.72852,0,0,1,8.97468-.75714c.61579.05046,1.27195.11109,1.95842.19181A17.16036,17.16036,0,0,1,47.65952,42.34048Z" fill="#d32f2e"/><path d="M44.60065,32.46729c-.68646-.08069-1.34265-.14136-1.95844-.19183-.45551-.03363-.884-.05524-1.304-.07306A17.21183,17.21183,0,0,1,43.819,41.17407,16.8351,16.8351,0,0,1,23.936,57.80548a16.88929,16.88929,0,0,0,23.72357-15.465A17.16039,17.16039,0,0,0,44.60065,32.46729Z" fill="#ba2a2a"/><polygon fill="#616161" points="37 1 25 1 27 8 35 8 37 1"/><polygon fill="#4c4c4c" points="34.429 1 33 6 26.429 6 27 8 35 8 37 1 34.429 1"/><path d="M18.47266,46.99951a.99917.99917,0,0,1-.9707-.76562A18.05449,18.05449,0,0,1,17,42a19.14888,19.14888,0,0,1,.11621-2.11133,1.0003,1.0003,0,0,1,1.98828.22168A17.059,17.059,0,0,0,19,42a16.11089,16.11089,0,0,0,.44531,3.76514.99952.99952,0,0,1-.97266,1.23438Z" fill="#d84444"/><path d="M23,53a.99744.99744,0,0,1-.66406-.252,17.09608,17.09608,0,0,1-2.0293-2.12549.99973.99973,0,1,1,1.56445-1.24512,15.08894,15.08894,0,0,0,1.793,1.87451A1.00022,1.00022,0,0,1,23,53Z" fill="#d84444"/></g><g data-name="Layer 1" id="Layer_1"><path d="M38,25.31188v-12.438a4.00031,4.00031,0,0,0-1-7.87354h-.10242l1.06433-3.7251A1.00009,1.00009,0,0,0,37,.00036H25a1.00009,1.00009,0,0,0-.96191,1.2749l1.06433,3.7251H25a4.00031,4.00031,0,0,0-1,7.87354V25.31237a17.72028,17.72028,0,0,0-11,16.688,18,18,0,1,0,36,0A17.71709,17.71709,0,0,0,38,25.31188ZM35.67383,2.00036l-1.42773,5H27.75391l-1.42773-5Zm-10.335,24.94092A.99985.99985,0,0,0,26,26.00036v-14a.99974.99974,0,0,0-1-1,2,2,0,0,1,0-4h.67383l.36426,1.2749A1.00094,1.00094,0,0,0,27,9.00036h8a1.00094,1.00094,0,0,0,.96191-.7251l.36426-1.2749H37a2,2,0,0,1,0,4,.99974.99974,0,0,0-1,1v14a.99939.99939,0,0,0,.66211.94092,15.42565,15.42565,0,0,1,5.92212,3.83386c-6.81989-.45886-9.72546.92352-12.53442,2.27161-2.97894,1.43079-5.81293,2.78088-13.58069,2.09332A15.42909,15.42909,0,0,1,25.33887,26.94127ZM31,58.00036a16.01833,16.01833,0,0,1-16-16,16.80777,16.80777,0,0,1,.7276-4.92316c1.71338.16754,3.22894.24786,4.56146.24786A21.105,21.105,0,0,0,30.916,34.85c2.93726-1.41,5.73254-2.738,13.39642-1.916A16.31383,16.31383,0,0,1,47,42.00036,16.01833,16.01833,0,0,1,31,58.00036Z"/></g></svg>