<?xml version="1.0" ?><svg viewBox="0 0 60 60" xmlns="http://www.w3.org/2000/svg"><title/><g id="colour"><path d="M8,43C0,28,13,20,18,17,34,6,57,7,59,1,52,25,35,16,27,36c-5,11-12,8-19,8" fill="#616161"/><path d="M19.541,20C32.167,11.31964,47,11,57,4c.83734-1.74786,1.32947-.701,2-3C57,7,34,6,18,17,13,20,0,28,8,43v1c.19794,0,.39587.00305.59375.00745C2.71777,30.28973,14.7677,22.864,19.541,20Z" fill="#6a6b6b"/><path d="M57,4C49,19,31.83264,15.29291,24.58319,33.4165c-4.60345,10.12756-10.90234,8.389-17.33557,8.04932C7.47583,41.96948,7.72241,42.47955,8,43v1c7,0,14,3,19-8C35,16,52,25,59,1,58.52356,2.42926,59.48114,3.10834,57,4Z" fill="#4c4c4c"/><path d="M11.85,37.09A47.07432,47.07432,0,0,0,6,53L1,59C1,49,7.85,44.09,11.85,37.09Z" fill="#ff9f00"/></g><g data-name="Layer 1" id="Layer_1"><path d="M59.29834.04577a1.00348,1.00348,0,0,0-1.24707.63818c-.75439,2.26416-6.38818,3.57373-12.91162,5.09082-8.46631,1.96826-19.00293,4.418-27.6543,10.36816C12.88849,18.90123-.9314,27.20794,6.73328,42.69719,3.37012,47.14788,0,51.81615,0,59.00036a.99987.99987,0,0,0,1.76807.64014l5-6a.99434.99434,0,0,0,.21582-.46143A48.805,48.805,0,0,1,9.1886,45.03862c.8252.03461,1.65247.0863,2.46326.14825,1.22705.09375,2.46191.188,3.68994.188,4.606-.00049,9.09912-1.32861,12.58691-9.00293C31.54,27.34313,36.95264,24.50231,42.68359,21.495,49.29,18.0277,56.12109,14.44274,59.96,1.28014A.9997.9997,0,0,0,59.29834.04577ZM5.064,52.56139l-2.83057,3.397A22.69091,22.69091,0,0,1,6.6875,46.121,51.94827,51.94827,0,0,0,5.064,52.56139ZM42.69409,19.22924l-2.24683-1.12341a1.00012,1.00012,0,1,0-.89453,1.78906l.96417.48212a31.97083,31.97083,0,0,0-9.33331,6.78149,12.87811,12.87811,0,0,1-5.13428.84186.98943.98943,0,0,0-1.02637,1,1.0082,1.0082,0,0,0,1.07275,1,20.50679,20.50679,0,0,0,3.03186-.20117,29.86818,29.86818,0,0,0-2.884,5.43091C23.64777,36.90752,21.94672,37.00036,19,37.00036a1,1,0,0,0,0,2,15.55133,15.55133,0,0,0,5.65057-.72638c-3.57208,5.6217-7.91125,5.29578-12.84637,4.91876-.60541-.04608-1.22278-.08856-1.84369-.12457C15.78137,29.28484,28.22833,19.254,48.3418,11.9403a1.00016,1.00016,0,0,0-.68359-1.87988C29.85254,16.53551,17.873,25.12243,11.03809,36.5067a1.05026,1.05026,0,0,0-.05908.0918,43.16253,43.16253,0,0,1-2.88727,4.2951c-1.9895-4.49255-1.95605-8.27307-.85876-11.41577a10.87328,10.87328,0,0,0,.86078,2.94537,1,1,0,1,0,1.8125-.8457,12.86572,12.86572,0,0,1-.9165-5.56653,25.05725,25.05725,0,0,1,6.838-6.467A11.00519,11.00519,0,0,0,14,25.00036a1,1,0,0,0,2,0c0-.79663.33624-3.751,4.577-8.46478a61.86926,61.86926,0,0,1,14.62073-6.16693l-.09222.18445a1.00012,1.00012,0,0,0,1.78906.89453l.90607-1.81219c2.70551-.72766,5.33826-1.34235,7.79169-1.9129,4.70752-1.09424,8.61523-2.00293,11.19287-3.30566C53.30151,13.26323,48.16394,16.33776,42.69409,19.22924Z"/></g></svg>