<?xml version="1.0" ?><svg viewBox="0 0 60 60" xmlns="http://www.w3.org/2000/svg"><title/><g id="colour"><path d="M55.13,41.23c0,4.82-2.71,9.2-7.13,12.4a25.22069,25.22069,0,0,1-4,2.36A32.80791,32.80791,0,0,1,30,59a32.80791,32.80791,0,0,1-14-3.01,25.22069,25.22069,0,0,1-4-2.36c-4.42-3.2-7.13-7.58-7.13-12.4C4.87,34.28,10.78,27.92,19,25H12a2.506,2.506,0,1,1-.2-5H48.2a2.59478,2.59478,0,0,1,2.6,2.6,2.2078,2.2078,0,0,1-.86,1.74A3.11488,3.11488,0,0,1,48,25H41C49.46,27.86,55.13,34.16,55.13,41.23Z" fill="#616161"/><path d="M42.38123,25.51227c5.39093,3.312,8.74854,8.28387,8.74854,13.71759,0,4.82-2.71,9.2-7.13,12.4a25.22069,25.22069,0,0,1-4,2.36,32.80791,32.80791,0,0,1-14,3.01,33.40563,33.40563,0,0,1-12.365-2.299A26.27858,26.27858,0,0,0,16,55.99,32.80791,32.80791,0,0,0,30,59a32.80791,32.80791,0,0,0,14-3.01,25.22069,25.22069,0,0,0,4-2.36c4.42-3.2,7.13-7.58,7.13-12.4C55.13,34.553,50.06952,28.56665,42.38123,25.51227Z" fill="#4c4c4c"/><path d="M16,55.99V57a1.88953,1.88953,0,0,1-2,2h-.03A1.86617,1.86617,0,0,1,12,57V53.63A25.22069,25.22069,0,0,0,16,55.99Z" fill="#4c4c4c"/><path d="M48,53.63V57a1.86617,1.86617,0,0,1-1.97,2H46a1.88953,1.88953,0,0,1-2-2V55.99A25.22069,25.22069,0,0,0,48,53.63Z" fill="#4c4c4c"/><path d="M10.93213,37.4668a1,1,0,0,1-.83105-1.55469,15.70378,15.70378,0,0,1,8.29785-6.45459,1,1,0,0,1,.66895,1.88477,13.64476,13.64476,0,0,0-7.30273,5.6792A.99908.99908,0,0,1,10.93213,37.4668Z" fill="#707070"/><path d="M31.02754,20.8335a.99908.99908,0,0,1-.833-.44531c-2.39209-3.58789-.99512-4.981.93848-6.90918l.18652-.186a2.34306,2.34306,0,0,0,.73535-1.95459,5.318,5.318,0,0,0-2.583-3.50635c-3.20312-1.92041-3.22314-3.88672-2.94629-4.88574C27.05586,1.03271,29.24043,0,31.02656,0a1,1,0,0,1,0,2,2.74741,2.74741,0,0,0-2.57324,1.48c-.21289.76807.54785,1.73877,2.08789,2.6626a7.21355,7.21355,0,0,1,3.50391,4.999A4.31194,4.31194,0,0,1,32.73359,14.707l-.18848.188c-1.83643,1.832-2.16748,2.16211-.68652,4.38379a1,1,0,0,1-.83105,1.55469Z" fill="#e0e0e0"/><path d="M19.02754,20.8335a.99908.99908,0,0,1-.833-.44531c-2.39209-3.58789-.99512-4.981.93848-6.90918l.18652-.186a2.34306,2.34306,0,0,0,.73535-1.95459,5.318,5.318,0,0,0-2.583-3.50635c-3.20313-1.92041-3.22314-3.88672-2.94629-4.88574C15.05586,1.03271,17.24043,0,19.02656,0a1,1,0,0,1,0,2,2.74741,2.74741,0,0,0-2.57324,1.48c-.21289.76807.54785,1.73877,2.08789,2.6626a7.21355,7.21355,0,0,1,3.50391,4.999A4.31194,4.31194,0,0,1,20.73359,14.707l-.18848.188c-1.83643,1.832-2.16748,2.16211-.68652,4.38379a1,1,0,0,1-.83105,1.55469Z" fill="#e0e0e0"/><path d="M37.02754,20.771a.99908.99908,0,0,1-.833-.44531c-2.25977-3.38965-1.19775-4.72168.87451-6.7832l.25049-.24951c.53711-.53711,1.01709-1.23193-.08936-2.688a1.00012,1.00012,0,1,1,1.59277-1.21c1.86377,2.45312.98,4.24268-.08936,5.312l-.25391.25293c-1.80225,1.79346-2.0791,2.06885-.62109,4.25635a1,1,0,0,1-.83105,1.55469Z" fill="#e0e0e0"/><path d="M25.02754,20.7915a.99908.99908,0,0,1-.833-.44531c-2.2666-3.3999-1.19482-4.74316.895-6.82422l.23-.229c.53711-.53711,1.01709-1.23193-.08936-2.688a1.00012,1.00012,0,1,1,1.59277-1.21c1.86377,2.45312.98,4.24268-.08936,5.312l-.23242.23193c-1.78613,1.77881-2.1084,2.09961-.64258,4.29785a1,1,0,0,1-.83105,1.55469Z" fill="#e0e0e0"/><path d="M43.02754,20.7915a.99908.99908,0,0,1-.833-.44531c-2.2666-3.3999-1.19482-4.74316.895-6.82422l.23-.229a2.34306,2.34306,0,0,0,.73535-1.95459,5.318,5.318,0,0,0-2.583-3.50635c-3.20312-1.92041-3.22314-3.88672-2.94629-4.88574C39.05586,1.03271,41.24043,0,43.02656,0a1,1,0,0,1,0,2,2.74741,2.74741,0,0,0-2.57324,1.48c-.21289.76807.54785,1.73877,2.08789,2.6626a7.21355,7.21355,0,0,1,3.50391,4.999A4.31194,4.31194,0,0,1,44.73359,14.707l-.23242.23193c-1.78613,1.77881-2.1084,2.09961-.64258,4.29785a1,1,0,0,1-.83105,1.55469Z" fill="#e0e0e0"/></g><g data-name="Layer 1" id="Layer_1"><path d="M56.1333,41.23375c0-6.084-3.93848-11.729-10.34863-15.2334H48a3.50681,3.50681,0,1,0,.2002-7H42.68329c-1.27112-1.972-.92365-2.35309.79132-4.061l.23242-.23193A4.31194,4.31194,0,0,0,45.01856,11.142a7.21355,7.21355,0,0,0-3.50391-4.999c-1.54-.92383-2.30078-1.89453-2.08789-2.6626A2.74741,2.74741,0,0,1,42,2.00036a1,1,0,1,0,0-2c-1.78613,0-3.9707,1.03271-4.501,2.94629-.27686.999-.25684,2.96533,2.94629,4.88574a5.318,5.318,0,0,1,2.583,3.50635,2.34306,2.34306,0,0,1-.73535,1.95459l-.23.229c-1.78864,1.78113-2.8241,3.02588-1.6665,5.478H36.69537c-1.28223-1.97662-.97839-2.31232.75775-4.04l.25391-.25293c1.06934-1.06934,1.95313-2.85889.08936-5.312a1.00012,1.00012,0,0,0-1.59277,1.21c1.10645,1.45605.62646,2.15088.08936,2.688l-.25049.24951c-1.77753,1.76831-2.80475,3.00372-1.63684,5.45752H30.65717c-1.2525-1.95819-.88983-2.358.86139-4.105l.18848-.188A4.31194,4.31194,0,0,0,33.01856,11.142a7.21355,7.21355,0,0,0-3.50391-4.999c-1.54-.92383-2.30078-1.89453-2.08789-2.6626A2.74741,2.74741,0,0,1,30,2.00036a1,1,0,1,0,0-2c-1.78613,0-3.9707,1.03271-4.501,2.94629-.27686.999-.25684,2.96533,2.94629,4.88574a5.318,5.318,0,0,1,2.583,3.50635,2.34306,2.34306,0,0,1-.73535,1.95459l-.18652.186c-1.66144,1.65686-2.91943,2.92249-1.7251,5.521H24.68329c-1.27112-1.972-.92365-2.35309.79132-4.061l.23242-.23193c1.06934-1.06934,1.95313-2.85889.08936-5.312a1.00012,1.00012,0,0,0-1.59277,1.21c1.10645,1.45605.62646,2.15088.08936,2.688l-.23.229c-1.78864,1.78113-2.8241,3.02588-1.6665,5.478H18.65717c-1.2525-1.95819-.88983-2.358.86139-4.105l.18848-.188A4.31194,4.31194,0,0,0,21.01856,11.142a7.21355,7.21355,0,0,0-3.50391-4.999c-1.54-.92383-2.30078-1.89453-2.08789-2.6626A2.74741,2.74741,0,0,1,18,2.00036a1,1,0,1,0,0-2c-1.78613,0-3.9707,1.03271-4.501,2.94629-.27686.999-.25684,2.96533,2.94629,4.88574a5.318,5.318,0,0,1,2.583,3.50635,2.34306,2.34306,0,0,1-.73535,1.95459l-.18652.186c-1.66144,1.65686-2.91943,2.92249-1.7251,5.521H11.79981a3.50681,3.50681,0,1,0,.2002,7h2.3623C7.93994,29.58727,3.8667,35.33239,3.8667,41.23375c0,4.97632,2.71613,9.50281,7.1333,12.86505v2.90155a2.86284,2.86284,0,0,0,3,3,2.87717,2.87717,0,0,0,2.95557-2.5155A34.10964,34.10964,0,0,0,30,60.00036a34.11111,34.11111,0,0,0,13.04449-2.5155,2.88955,2.88955,0,0,0,2.98871,2.5155,2.85452,2.85452,0,0,0,2.9668-3V54.09881C53.41718,50.73656,56.1333,46.21007,56.1333,41.23375ZM15,57.00036a.91211.91211,0,0,1-1.0332,1,.88391.88391,0,0,1-.9668-1v-1.531q.96112.59271,2,1.11792Zm32,0a1,1,0,1,1-2,0v-.41309q1.0383-.52469,2-1.11792Zm-17,1c-13.30713,0-24.1333-7.52148-24.1333-16.7666,0-6.28564,5.41211-12.43066,13.46777-15.291A1,1,0,0,0,19,24.00036H12c-.86572,0-1.7998-.53516-1.7998-1.3999a1.60177,1.60177,0,0,1,1.59961-1.6001H48.2002a1.60177,1.60177,0,0,1,1.59961,1.6001c0,.86475-.93408,1.3999-1.7998,1.3999H41a1,1,0,0,0-.32031,1.94727c8.17285,2.76465,13.45361,8.76514,13.45361,15.28613C54.1333,50.47887,43.30713,58.00036,30,58.00036Z"/></g></svg>