<?xml version="1.0" ?><svg viewBox="0 0 60 60" xmlns="http://www.w3.org/2000/svg"><title/><g data-name="Layer 1" id="Layer_1"><path d="M59,52H57V51a.99942.99942,0,0,0-1-1V45a1,1,0,0,0,0-2V41a.99942.99942,0,0,0-1-1H54V37c0-3.13184-1.916-9.15771-6.02051-12.50342a6.01386,6.01386,0,0,0-5.168-5.44189c-1.1875-4.67871-4.27734-6.80566-8.9873-6.20312A10.02577,10.02577,0,1,0,24,25a9.1853,9.1853,0,0,0,3.25684-.57715A7.47593,7.47593,0,0,0,30.18066,27.958a8.8406,8.8406,0,0,0,7.416,1.2373C39.03613,30.9082,41.69336,30.99512,42.83105,31,45.92914,32.12329,47.447,35.5686,48,37.16718V40H26a.99942.99942,0,0,0-1-1H14V37a.99942.99942,0,0,0-1-1H1a.99942.99942,0,0,0-1,1v5a.99942.99942,0,0,0,1,1,2.00261,2.00261,0,0,1,2,2v7H1a1,1,0,0,0,0,2H3v1a.99942.99942,0,0,0,1,1H8.10107a4.9987,4.9987,0,0,0,9.79987-.02A.93293.93293,0,0,0,18,56h2.10107a4.99993,4.99993,0,0,0,9.79785,0h2.20215a4.99993,4.99993,0,0,0,9.79785,0h2.28534A2.96482,2.96482,0,0,0,44,57a3,3,0,0,0,6,0,2.96482,2.96482,0,0,0-.18427-1h2.36853A2.96482,2.96482,0,0,0,52,57a3,3,0,1,0,5-2.21973V54h2a1,1,0,0,0,0-2ZM32.10107,54H29.89893a4.95512,4.95512,0,0,0-.9245-2h4.05115A4.95512,4.95512,0,0,0,32.10107,54ZM35,50V42h7v8Zm9,0V42h2v8Zm-3.02557,2H55v2H41.89893A4.95512,4.95512,0,0,0,40.97443,52ZM48,50V42h6v8ZM43.31641,29.05127A.99855.99855,0,0,0,43,29c-.83691,0-3.38184,0-4.10547-1.44727a1.00274,1.00274,0,0,0-1.26562-.48145,6.77233,6.77233,0,0,1-6.32715-.76953A4.68031,4.68031,0,0,1,29,23a1.00017,1.00017,0,0,0-1.459-.88818A7.45633,7.45633,0,0,1,24,23a8.00019,8.00019,0,1,1,8.00586-8.89014.99963.99963,0,0,0,1.19043.87061c4.44531-.88574,6.93359.7666,7.82324,5.21582A1.00017,1.00017,0,0,0,42,21a4.00552,4.00552,0,0,1,4,4,.99878.99878,0,0,0,.40039.7998c3.22406,2.41846,5.15485,7.174,5.52826,10.2002h-2.242C48.34674,32.48828,46.061,29.96594,43.31641,29.05127ZM50,38h2v2H50ZM33,42v8H26V42Zm-9-1v9H14V41ZM8.10107,54H5V45a4.00568,4.00568,0,0,0-3-3.873V38H12V50.10107A5.01454,5.01454,0,0,0,8.10107,54ZM13,58a3,3,0,1,1,3-3A3.00328,3.00328,0,0,1,13,58Zm4.90094-3.98A4.95412,4.95412,0,0,0,16.97443,52h4.05115a4.95512,4.95512,0,0,0-.9245,2H18A.93293.93293,0,0,0,17.90094,54.02ZM25,58a3,3,0,1,1,3-3A3.00328,3.00328,0,0,1,25,58Zm12,0a3,3,0,1,1,3-3A3.00328,3.00328,0,0,1,37,58Zm11-1a1,1,0,1,1-1-1A1.00068,1.00068,0,0,1,48,57Zm7,1a1,1,0,1,1,1-1A1.00068,1.00068,0,0,1,55,58Z"/><circle cx="37" cy="55" r="1"/><circle cx="25" cy="55" r="1"/><circle cx="13" cy="55" r="1"/></g></svg>