<?xml version="1.0" ?><svg viewBox="0 0 60 60" xmlns="http://www.w3.org/2000/svg"><title/><g id="colour"><path d="M39.52541,31.59c-5.93005-.38-7.76.76-9.69,1.97-1.96,1.23-3.98,2.5-11.08,2.11l5.79-12.46a.53645.53645,0,0,0,.05-.21V12a.50142.50142,0,0,0-.5-.5,2.5,2.5,0,0,1,0-5h10.59a.646.646,0,0,0,.2-.04.7111.7111,0,0,0,.21.04h1a2.5,2.5,0,0,1,0,5,.49514.49514,0,0,0-.5.5V23a.52141.52141,0,0,0,.04.21Z" fill="#e0e0e0"/><path d="M35.39575,6.46a.52034.52034,0,0,1-.178.04H32.445A2.37543,2.37543,0,0,1,34.67,9a2.37543,2.37543,0,0,1-2.225,2.5A.47027.47027,0,0,0,32,12V23a.57833.57833,0,0,0,.03563.21l3.46213,8.38c2.67-.59-1.25016-.38,4.02762,0l-3.46213-8.38a.57833.57833,0,0,1-.03563-.21V12a.47027.47027,0,0,1,.445-.5,2.37543,2.37543,0,0,0,2.225-2.5,2.37543,2.37543,0,0,0-2.225-2.5" fill="#c9c8c7"/><path d="M47.24538,52.76c-3.33,3.97-8.62,5.74-17.15,5.74s-13.81995-1.77-17.15-5.74a3.46,3.46,0,0,1-.43-3.65l5.91-12.72c1.03.06995,1.97.1,2.81.1,5.35,0,7.2-1.16,9-2.29,1.86-1.17,3.62-2.28,9.65-1.84l7.78,16.75A3.4584,3.4584,0,0,1,47.24538,52.76Z" fill="#7a1fa1"/><path d="M47.67809,49.11l-7.4837-16.75a25.04884,25.04884,0,0,0-4.149-.02142L42.86849,47.61a3.56982,3.56982,0,0,1-.404,3.65C39.2613,55.23,34.17277,57,25.96757,57A38.258,38.258,0,0,1,19,56.43756C21.96067,57.84155,25.79062,58.5,30.77717,58.5c8.2052,0,13.29373-1.77,16.49693-5.74A3.56982,3.56982,0,0,0,47.67809,49.11Z" fill="#5f1b87"/><polygon fill="#616161" points="36 1 24 1 26 8 34 8 36 1"/><polygon fill="#4c4c4c" points="33.429 1 32 6 25.429 6 26 8 34 8 36 1 33.429 1"/><path d="M15.999,51.00049a1.00071,1.00071,0,0,1-.91309-1.40674l1.333-3a1.00027,1.00027,0,1,1,1.82813.8125l-1.333,3A1.0012,1.0012,0,0,1,15.999,51.00049Z" fill="#7c3da5"/><path d="M19.11035,44.00049a1.00071,1.00071,0,0,1-.91309-1.40674l.88867-2a1.00027,1.00027,0,1,1,1.82813.8125l-.88867,2A1.0012,1.0012,0,0,1,19.11035,44.00049Z" fill="#7c3da5"/></g><g data-name="Layer 1" id="Layer_1"><path d="M48.93359,48.48327,37,22.77965V12.87389a4.00031,4.00031,0,0,0-1-7.87354h-.10242l1.06433-3.7251A1.00009,1.00009,0,0,0,36,.00036H24a1.00009,1.00009,0,0,0-.96191,1.2749l1.06433,3.7251H24a4.00031,4.00031,0,0,0-1,7.87354v9.90576L11.06641,48.4818a4.93916,4.93916,0,0,0,.63574,5.2373C15.34082,58.06334,20.98438,60.00036,30,60.00036s14.65918-1.937,18.29785-6.28125A4.937,4.937,0,0,0,48.93359,48.48327ZM34.67383,2.00036l-1.42773,5H26.75391l-1.42773-5Zm-9.7666,21.4209A1.00923,1.00923,0,0,0,25,23.00036v-11a.99974.99974,0,0,0-1-1,2,2,0,0,1,0-4h.67383l.36426,1.2749A1.00094,1.00094,0,0,0,26,9.00036h8a1.00094,1.00094,0,0,0,.96191-.7251l.36426-1.2749H36a2,2,0,0,1,0,4,.99974.99974,0,0,0-1,1v11a.99431.99431,0,0,0,.09277.4209l3.48035,7.49658c-5.43958-.21387-7.334.96729-9.163,2.11523-1.79993,1.12982-3.66614,2.29224-9.915,2.045ZM46.76465,52.43493C43.54,56.284,38.37012,58.00036,30,58.00036S16.46,56.284,13.23535,52.43493a2.93155,2.93155,0,0,1-.35449-3.11084L18.588,37.03179c.892.049,1.731.07892,2.48425.07892,5.60254,0,7.60449-1.25635,9.40137-2.38379,1.82672-1.14709,3.42737-2.13782,9.053-1.75519l7.59247,16.35382A2.92927,2.92927,0,0,1,46.76465,52.43493Z"/></g></svg>