<?xml version="1.0" ?><svg viewBox="0 0 60 60" xmlns="http://www.w3.org/2000/svg"><title/><g id="colour"><path d="M39,8.85a2.7742,2.7742,0,0,1-.88,2.014A3.0736,3.0736,0,0,1,36,11.7V22.15c-3.08,0-3.95.551-4.96,1.197C29.82,24.11651,28.44,25,24,25V11.7a3.0736,3.0736,0,0,1-2.12-.836,2.74464,2.74464,0,0,1,0-4.028A3.07333,3.07333,0,0,1,24,6H36A2.924,2.924,0,0,1,39,8.85Z" fill="#e0e0e0"/><path d="M36,6H32a2.92394,2.92394,0,0,1,3,2.85,2.77411,2.77411,0,0,1-.88,2.014,3.04414,3.04414,0,0,1-1.32146.73329A1.02008,1.02008,0,0,0,32,12.56709V22.15a34.13636,34.13636,0,0,1,4,0V11.7a3.07354,3.07354,0,0,0,2.12-.83606A2.77411,2.77411,0,0,0,39,8.85,2.92394,2.92394,0,0,0,36,6Z" fill="#c9c8c7"/><polygon fill="#616161" points="36 1 24 1 26 8 34 8 36 1"/><polygon fill="#4c4c4c" points="33.429 1 32 6 25.429 6 26 8 34 8 36 1 33.429 1"/><path d="M36,22V59H24V25.08333c4.44,0,5.82-.95583,7.04-1.78832C32.05,22.59607,32.92,22,36,22Z" fill="#e74a19"/><path d="M32,22.70038V55H24v4H36V22A8.31539,8.31539,0,0,0,32,22.70038Z" fill="#ce3e17"/><path d="M28,51a.99974.99974,0,0,1-1-1V49a1,1,0,0,1,2,0v1A.99974.99974,0,0,1,28,51Z" fill="#ed5c35"/><path d="M28,46a.99974.99974,0,0,1-1-1V33a1,1,0,0,1,2,0V45A.99974.99974,0,0,1,28,46Z" fill="#ed5c35"/></g><g data-name="Layer 1" id="Layer_1"><path d="M36,5.00036h-.10242l1.06433-3.7251A1.00009,1.00009,0,0,0,36,.00036H24a1.00009,1.00009,0,0,0-.96191,1.2749l1.06433,3.7251H24a4.00031,4.00031,0,0,0-1,7.87354V59.00036a.99974.99974,0,0,0,1,1H36a.99974.99974,0,0,0,1-1V12.87389a4.00031,4.00031,0,0,0-1-7.87354Zm-1.32617-3-1.42773,5H26.75391l-1.42773-5ZM25,58.00036V25.98119c3.65112-.13007,4.9198-.97247,6.043-1.725A6.44618,6.44618,0,0,1,35,23.02526v34.9751Zm11-47a.99974.99974,0,0,0-1,1v9.02429a8.34437,8.34437,0,0,0-5.06836,1.56946C28.95215,23.24932,28.015,23.86986,25,23.98095V12.00036a.99974.99974,0,0,0-1-1,2,2,0,0,1,0-4h.67383l.36426,1.2749A1.00094,1.00094,0,0,0,26,9.00036h8a1.00094,1.00094,0,0,0,.96191-.7251l.36426-1.2749H36a2,2,0,0,1,0,4Z"/></g></svg>