<?xml version="1.0" ?><svg viewBox="0 0 60 60" xmlns="http://www.w3.org/2000/svg"><title/><g data-name="Layer 1" id="Layer_1"><path d="M59,29H57.97461A27.9922,27.9922,0,0,0,2.02539,29H1a1,1,0,0,0,0,2H2.02539a27.9922,27.9922,0,0,0,55.94922,0H59a1,1,0,0,0,0-2ZM30,4A26.02686,26.02686,0,0,1,55.97467,29H54c-.009,0-.01636.00482-.02527.00507a23.99517,23.99517,0,0,0-47.94946,0C6.01636,29.00482,6.009,29,6,29H4.02533A26.02686,26.02686,0,0,1,30,4Zm0,44A18,18,0,1,1,48,30,18.02094,18.02094,0,0,1,30,48ZM29,10.05066a19.97306,19.97306,0,0,0,0,39.89868v2.02527A21.99723,21.99723,0,0,1,29,8.02539Zm2,39.89868a19.97306,19.97306,0,0,0,0-39.89868V8.02539a21.99723,21.99723,0,0,1,0,43.94922ZM30,56A26.02686,26.02686,0,0,1,4.02533,31H6c.009,0,.01636-.00482.02527-.00507a23.99517,23.99517,0,0,0,47.94946,0C53.98364,30.99518,53.991,31,54,31h1.97467A26.02686,26.02686,0,0,1,30,56Z"/><path d="M31.20215,30l4.35254-6.5293a5.89181,5.89181,0,0,0-.58105-7.39648,7.00125,7.00125,0,0,0-9.94824,0,5.893,5.893,0,0,0-.58008,7.39648L28.79785,30l-4.35254,6.5293a5.89181,5.89181,0,0,0,.58105,7.39648,7.00125,7.00125,0,0,0,9.94824,0,5.893,5.893,0,0,0,.58008-7.39648Zm-5.09277-7.63867a3.88615,3.88615,0,0,1,.33691-4.87891,4.99958,4.99958,0,0,1,7.10645,0,3.88494,3.88494,0,0,1,.33789,4.87891L30,28.19727ZM30,31.80273l3.89063,5.83594.00366.00665A5.51731,5.51731,0,0,1,30,39a5.51731,5.51731,0,0,1-3.89429-1.35468l.00366-.00665Zm3.55371,10.71484a4.99958,4.99958,0,0,1-7.10645,0,3.68355,3.68355,0,0,1-1.02094-2.87268A7.56369,7.56369,0,0,0,30,41a7.56369,7.56369,0,0,0,4.57367-1.3551A3.68455,3.68455,0,0,1,33.55371,42.51758Z"/><circle cx="22" cy="30" r="1"/><circle cx="15" cy="30" r="1"/><circle cx="18" cy="36" r="1"/><circle cx="20" cy="42" r="1"/><circle cx="18" cy="24" r="1"/><circle cx="20" cy="18" r="1"/><circle cx="38" cy="30" r="1"/><circle cx="45" cy="30" r="1"/><circle cx="42" cy="36" r="1"/><circle cx="40" cy="42" r="1"/><circle cx="42" cy="24" r="1"/><circle cx="40" cy="18" r="1"/></g></svg>