<?xml version="1.0" ?><svg viewBox="0 0 60 60" xmlns="http://www.w3.org/2000/svg"><title/><g id="colour"><circle cx="30" cy="30" fill="#ff9f00" r="19.5"/><path d="M22.89679,48a19.47758,19.47758,0,0,1,18.7063-33.79175A19.48475,19.48475,0,1,0,22.89679,48Z" fill="#ffb15c"/><path d="M35.0757,22.40252,30.0054,29.1l-5.0821-6.69746a4.1391,4.1391,0,0,1,.47161-5.71258,7.13406,7.13406,0,0,1,9.22091,0A4.14954,4.14954,0,0,1,35.0757,22.40252Z" fill="#e0e0e0"/><path d="M35,38.14826A6.69669,6.69669,0,0,1,30.00554,40,6.71832,6.71832,0,0,1,25,38.14826c.088-.13756.165-.27513.26408-.41269L30.00554,30.9l4.73045,6.8356C34.835,37.87313,34.912,38.01069,35,38.14826Z" fill="#e0e0e0"/><path d="M34.62072,43.01565a6.35312,6.35312,0,0,1-9.22519,0A5.3283,5.3283,0,0,1,24.18049,38a8.03014,8.03014,0,0,0,5.82767,2.13043A7.96889,7.96889,0,0,0,35.81222,38,5.31861,5.31861,0,0,1,34.62072,43.01565Z" fill="#7a1fa1"/><path d="M34.61584,16.68994A6.93938,6.93938,0,0,0,30.00537,15a7.35059,7.35059,0,0,0-1.5011.16907,6.77666,6.77666,0,0,1,3.11157,1.52087,4.14951,4.14951,0,0,1,.45984,5.71259L28.5036,27.12091,30.00537,29.1l5.07031-6.69745A4.14951,4.14951,0,0,0,34.61584,16.68994Z" fill="#c9c8c7"/><path d="M35,38.14825c-.088-.13757-.165-.27515-.264-.41272L30.00555,30.9l-1.50177,2.165L31.736,37.73553c.099.13757.176.27515.264.41272a6.53071,6.53071,0,0,1-3.49719,1.75616A9.17113,9.17113,0,0,0,30.00555,40,6.69669,6.69669,0,0,0,35,38.14825Z" fill="#c9c8c7"/><path d="M35.81219,38a8.07763,8.07763,0,0,1-2.828,1.69312,5.1257,5.1257,0,0,1-1.36346,3.32251,6.44875,6.44875,0,0,1-3.11365,1.79791,6.30427,6.30427,0,0,0,6.11365-1.79791A5.31854,5.31854,0,0,0,35.81219,38Z" fill="#5f1b87"/><path d="M37.10321,11.85413a19.47758,19.47758,0,0,1-18.7063,33.79175,19.48475,19.48475,0,1,0,18.7063-33.79175Z" fill="#e28703"/><path d="M30,3C15.39,3,3.5,15.11435,3.5,30S15.39,57,30,57,57.5,44.88565,57.5,30,44.61,3,30,3Zm0,51C16.77,54,6.5,43.4796,6.5,30a23.87292,23.87292,0,0,1,24-24C43.73,6,54,16.52034,54,30A23.873,23.873,0,0,1,30,54Z" fill="#ff9f00"/></g><g data-name="Layer 1" id="Layer_1"><path d="M59,29.00036H57.97461a27.9922,27.9922,0,0,0-55.94922,0H1a1,1,0,1,0,0,2H2.02539a27.9922,27.9922,0,0,0,55.94922,0H59a1,1,0,0,0,0-2Zm-29-25a26.02686,26.02686,0,0,1,25.97467,25h-1.5a24.49488,24.49488,0,0,0-48.94934,0h-1.5A26.02686,26.02686,0,0,1,30,4.00036Zm0,44.5a18.5,18.5,0,1,1,18.5-18.5A18.52065,18.52065,0,0,1,30,48.50036ZM29,9.551A20.47245,20.47245,0,0,0,29,50.4497V52.475A22.4967,22.4967,0,0,1,29,7.52575ZM31,50.4497A20.47245,20.47245,0,0,0,31,9.551V7.52575A22.4967,22.4967,0,0,1,31,52.475Zm-1,5.55066a26.02686,26.02686,0,0,1-25.97467-25h1.5a24.49488,24.49488,0,0,0,48.94934,0h1.5A26.02686,26.02686,0,0,1,30,56.00036Z"/><path d="M31.20215,30.00036l4.35254-6.5293a5.89181,5.89181,0,0,0-.58105-7.39648,7.00125,7.00125,0,0,0-9.94824,0,5.893,5.893,0,0,0-.58008,7.39648l4.35254,6.5293-4.35254,6.5293a5.89181,5.89181,0,0,0,.58105,7.39648,7.00125,7.00125,0,0,0,9.94824,0,5.893,5.893,0,0,0,.58008-7.39648Zm-5.09277-7.63867a3.88615,3.88615,0,0,1,.33691-4.87891,4.99958,4.99958,0,0,1,7.10645,0,3.88494,3.88494,0,0,1,.33789,4.87891L30,28.19762ZM30,31.80309,33.89063,37.639l.00366.00665A5.51731,5.51731,0,0,1,30,39.00036a5.51731,5.51731,0,0,1-3.89429-1.35468l.00366-.00665Zm3.55371,10.71484a4.99958,4.99958,0,0,1-7.10645,0,3.68355,3.68355,0,0,1-1.02094-2.87268A7.56369,7.56369,0,0,0,30,41.00036a7.56369,7.56369,0,0,0,4.57367-1.3551A3.68455,3.68455,0,0,1,33.55371,42.51793Z"/><circle cx="22" cy="30.00036" r="1"/><circle cx="15" cy="30.00036" r="1"/><circle cx="18" cy="36.00036" r="1"/><circle cx="20" cy="42.00036" r="1"/><circle cx="18" cy="24.00036" r="1"/><circle cx="20" cy="18.00036" r="1"/><circle cx="38" cy="30.00036" r="1"/><circle cx="45" cy="30.00036" r="1"/><circle cx="42" cy="36.00036" r="1"/><circle cx="40" cy="42.00036" r="1"/><circle cx="42" cy="24.00036" r="1"/><circle cx="40" cy="18.00036" r="1"/></g></svg>